<svg width="512" height="512" viewBox="0 0 512 512" fill="none" xmlns="http://www.w3.org/2000/svg">
<path d="M423.473 250.263H354.858C353.996 250.263 353.148 250.04 352.397 249.616C351.647 249.193 351.018 248.582 350.573 247.844L309.773 180.158C309.304 179.377 309.055 178.483 309.055 177.572C309.055 176.661 309.304 175.768 309.773 174.987L319.347 159.105C319.685 158.541 320.131 158.049 320.66 157.658C321.189 157.266 321.79 156.984 322.428 156.825C323.067 156.667 323.731 156.637 324.381 156.736C325.031 156.836 325.655 157.063 326.218 157.404C327.354 158.09 328.171 159.199 328.49 160.488C328.809 161.776 328.603 163.139 327.918 164.275L319.904 177.572L357.683 240.254H420.649L458.428 177.572L420.649 114.885H357.683L347.211 132.267C346.525 133.403 345.416 134.221 344.127 134.54C342.839 134.859 341.477 134.653 340.34 133.968C339.203 133.282 338.386 132.173 338.067 130.884C337.748 129.596 337.954 128.234 338.639 127.097L350.573 107.296C351.018 106.558 351.647 105.947 352.397 105.523C353.148 105.1 353.996 104.877 354.858 104.877H423.473C425.227 104.877 426.854 105.796 427.759 107.296L468.558 174.986C469.028 175.767 469.276 176.66 469.276 177.571C469.276 178.482 469.028 179.376 468.558 180.156L427.759 247.843C427.313 248.581 426.685 249.192 425.934 249.616C425.183 250.04 424.335 250.263 423.473 250.263ZM423.473 407.894H354.858C353.996 407.894 353.148 407.672 352.397 407.248C351.647 406.824 351.018 406.214 350.573 405.475L309.773 337.785C309.304 337.004 309.055 336.111 309.055 335.2C309.055 334.289 309.304 333.395 309.773 332.615L321.081 313.854C321.42 313.29 321.866 312.798 322.395 312.408C322.924 312.017 323.525 311.734 324.164 311.576C324.802 311.418 325.465 311.388 326.116 311.487C326.766 311.586 327.39 311.813 327.952 312.154C329.089 312.84 329.907 313.949 330.226 315.237C330.545 316.526 330.339 317.889 329.653 319.025L319.905 335.2L357.684 397.888H420.65L458.429 335.2L420.649 272.517H357.683L347.714 289.059C347.021 290.18 345.913 290.983 344.632 291.293C343.35 291.603 341.999 291.394 340.87 290.713C339.741 290.032 338.927 288.934 338.603 287.656C338.28 286.378 338.474 285.024 339.143 283.888L350.573 264.927C351.018 264.189 351.646 263.578 352.397 263.154C353.148 262.73 353.996 262.507 354.858 262.508H423.473C425.227 262.508 426.854 263.426 427.759 264.927L468.558 332.614C469.028 333.394 469.276 334.288 469.276 335.199C469.276 336.11 469.028 337.003 468.558 337.784L427.759 405.474C427.313 406.213 426.685 406.824 425.934 407.248C425.183 407.672 424.335 407.894 423.473 407.894ZM157.141 250.263H88.5269C87.6646 250.263 86.8168 250.04 86.0658 249.617C85.3148 249.193 84.686 248.582 84.2404 247.844L43.4412 180.158C42.9714 179.377 42.7231 178.483 42.7231 177.572C42.7231 176.661 42.9714 175.768 43.4412 174.987L84.2404 107.297C84.686 106.559 85.3148 105.948 86.0658 105.524C86.8168 105.1 87.6646 104.878 88.5269 104.878H157.141C158.895 104.878 160.523 105.797 161.426 107.297L173.36 127.098C174.012 128.233 174.194 129.579 173.866 130.846C173.538 132.114 172.726 133.203 171.605 133.879C170.484 134.555 169.142 134.765 167.868 134.464C166.594 134.163 165.488 133.375 164.788 132.268L154.317 114.886H91.3511L53.5716 177.573L91.3511 240.255H154.317L192.095 177.573L184.081 164.276C183.396 163.14 183.19 161.777 183.509 160.489C183.828 159.2 184.646 158.091 185.782 157.405C186.345 157.064 186.969 156.838 187.619 156.739C188.269 156.64 188.933 156.67 189.571 156.828C190.21 156.986 190.811 157.269 191.339 157.66C191.868 158.051 192.315 158.542 192.653 159.106L202.226 174.988C202.695 175.769 202.944 176.663 202.944 177.573C202.944 178.484 202.695 179.378 202.226 180.159L161.426 247.845C160.981 248.583 160.352 249.193 159.601 249.617C158.851 250.04 158.003 250.263 157.141 250.263ZM157.141 407.894H88.5269C87.6646 407.894 86.8168 407.672 86.0658 407.248C85.3148 406.824 84.686 406.214 84.2404 405.475L43.4412 337.785C42.9714 337.004 42.7231 336.111 42.7231 335.2C42.7231 334.289 42.9714 333.395 43.4412 332.615L84.2404 264.928C84.6858 264.19 85.3145 263.579 86.0656 263.155C86.8166 262.731 87.6645 262.508 88.5269 262.509H157.141C158.895 262.509 160.523 263.427 161.426 264.928L172.857 283.889C173.542 285.026 173.748 286.388 173.429 287.676C173.11 288.965 172.293 290.074 171.157 290.76C170.594 291.1 169.97 291.325 169.32 291.424C168.67 291.522 168.007 291.491 167.369 291.334C166.731 291.176 166.13 290.894 165.601 290.504C165.072 290.113 164.625 289.623 164.285 289.06L154.317 272.517H91.3511L53.5716 335.199L91.3511 397.887H154.317L192.095 335.199L182.347 319.024C181.662 317.887 181.456 316.525 181.775 315.237C182.094 313.948 182.911 312.839 184.048 312.153C184.61 311.812 185.234 311.586 185.884 311.487C186.535 311.388 187.198 311.418 187.836 311.576C188.475 311.734 189.076 312.016 189.604 312.407C190.133 312.798 190.58 313.289 190.919 313.853L202.227 332.614C202.697 333.394 202.945 334.288 202.945 335.199C202.945 336.11 202.697 337.003 202.227 337.784L161.427 405.474C160.982 406.213 160.353 406.824 159.602 407.248C158.851 407.671 158.003 407.894 157.141 407.894ZM290.31 170.986H221.69C218.924 170.986 216.686 168.747 216.686 165.981C216.686 163.215 218.924 160.977 221.69 160.977H290.31C293.076 160.977 295.314 163.215 295.314 165.981C295.314 168.747 293.075 170.986 290.31 170.986ZM202.163 138.577C201.3 138.579 200.451 138.357 199.699 137.933C198.947 137.509 198.318 136.898 197.873 136.158L176.61 100.876C176.141 100.096 175.892 99.2022 175.892 98.2913C175.892 97.3803 176.141 96.4866 176.61 95.7062L217.405 28.0198C217.851 27.2816 218.48 26.671 219.23 26.2473C219.981 25.8235 220.829 25.6009 221.691 25.6011H290.311C292.065 25.6011 293.692 26.5196 294.597 28.0198L335.396 95.7062C335.866 96.4866 336.114 97.3803 336.114 98.2913C336.114 99.2022 335.866 100.096 335.396 100.876L314.129 136.158C313.444 137.295 312.334 138.113 311.046 138.432C309.757 138.75 308.395 138.544 307.258 137.859C306.121 137.173 305.303 136.064 304.985 134.775C304.666 133.486 304.872 132.124 305.558 130.987L325.265 98.2907L287.486 35.6086H224.516L186.742 98.2907L206.445 130.987C206.902 131.746 207.15 132.613 207.163 133.499C207.176 134.385 206.953 135.259 206.518 136.031C206.082 136.803 205.45 137.445 204.685 137.893C203.92 138.34 203.049 138.576 202.163 138.577ZM207.582 305.659C206.719 305.66 205.87 305.439 205.118 305.015C204.367 304.591 203.737 303.979 203.292 303.24L176.609 258.972C176.14 258.191 175.891 257.298 175.891 256.387C175.891 255.476 176.14 254.582 176.609 253.802L217.404 186.115C217.85 185.377 218.479 184.766 219.229 184.343C219.98 183.919 220.828 183.696 221.69 183.696H290.31C292.064 183.696 293.691 184.615 294.596 186.115L335.395 253.802C336.081 254.938 336.287 256.301 335.968 257.589C335.649 258.878 334.831 259.987 333.695 260.673C332.558 261.359 331.195 261.565 329.907 261.246C328.618 260.927 327.509 260.109 326.823 258.973L287.485 193.705H224.515L186.741 256.387L211.864 298.071C212.549 299.208 212.754 300.57 212.435 301.859C212.116 303.147 211.299 304.256 210.163 304.942C209.351 305.43 208.462 305.659 207.582 305.659ZM290.31 329.081H221.69C221.033 329.081 220.382 328.952 219.774 328.701C219.167 328.449 218.615 328.081 218.15 327.616C217.686 327.151 217.317 326.599 217.066 325.992C216.814 325.385 216.685 324.734 216.686 324.077C216.685 323.419 216.814 322.768 217.066 322.161C217.317 321.554 217.686 321.002 218.15 320.537C218.615 320.072 219.167 319.704 219.774 319.452C220.382 319.201 221.033 319.072 221.69 319.072H287.48L300.136 298.074C300.474 297.51 300.919 297.017 301.447 296.626C301.975 296.234 302.576 295.951 303.214 295.792C303.852 295.634 304.515 295.603 305.165 295.702C305.815 295.801 306.439 296.027 307.001 296.368C307.565 296.707 308.055 297.153 308.446 297.681C308.837 298.21 309.119 298.81 309.278 299.447C309.436 300.085 309.467 300.748 309.369 301.398C309.272 302.047 309.047 302.671 308.707 303.234L294.595 326.656C294.151 327.396 293.523 328.008 292.772 328.433C292.021 328.858 291.173 329.081 290.31 329.081ZM203.673 380.91C202.787 380.908 201.917 380.671 201.152 380.224C200.387 379.777 199.755 379.134 199.32 378.362C198.885 377.591 198.662 376.717 198.674 375.831C198.687 374.946 198.934 374.079 199.391 373.32L217.403 343.433C217.849 342.695 218.477 342.085 219.228 341.661C219.979 341.237 220.827 341.014 221.689 341.015H290.309C290.966 341.014 291.617 341.143 292.224 341.395C292.832 341.646 293.383 342.014 293.848 342.479C294.313 342.944 294.682 343.495 294.933 344.103C295.184 344.71 295.314 345.361 295.313 346.018C295.314 346.675 295.185 347.326 294.933 347.933C294.682 348.541 294.313 349.093 293.849 349.557C293.384 350.022 292.832 350.391 292.225 350.642C291.617 350.893 290.966 351.023 290.309 351.022H224.514L207.963 378.491C207.518 379.23 206.889 379.842 206.137 380.266C205.385 380.69 204.536 380.911 203.673 380.91ZM290.31 486.4H221.69C220.828 486.4 219.98 486.177 219.229 485.753C218.478 485.329 217.85 484.719 217.404 483.98L176.609 416.294C175.924 415.157 175.719 413.795 176.038 412.506C176.357 411.218 177.174 410.109 178.31 409.423C178.873 409.082 179.497 408.856 180.147 408.757C180.797 408.659 181.46 408.689 182.099 408.847C182.737 409.005 183.338 409.287 183.867 409.678C184.396 410.069 184.842 410.56 185.181 411.124L224.515 476.392H287.485L325.264 413.709L304.037 378.491C303.352 377.354 303.146 375.992 303.465 374.703C303.784 373.415 304.601 372.306 305.738 371.62C306.3 371.279 306.924 371.052 307.575 370.953C308.225 370.854 308.888 370.884 309.526 371.042C310.165 371.2 310.766 371.483 311.295 371.874C311.824 372.264 312.27 372.756 312.609 373.32L335.396 411.124C335.866 411.904 336.114 412.798 336.114 413.709C336.114 414.62 335.866 415.513 335.396 416.294L294.597 483.98C294.151 484.719 293.522 485.329 292.771 485.753C292.02 486.177 291.173 486.4 290.31 486.4Z" fill="white"/>
</svg>
